<svg width="27" height="26" viewBox="0 0 27 26" fill="none" xmlns="http://www.w3.org/2000/svg">
<path fill-rule="evenodd" clip-rule="evenodd" d="M17.8985 0.0714487C16.8597 0.279634 15.7977 0.847269 15.0654 1.58585C14.0337 2.62622 13.4142 4.05547 13.4573 5.29575L13.4706 5.67819L13.8819 5.6724C14.8477 5.65875 15.7923 5.20711 16.7001 4.32508C17.8553 3.20264 18.4627 1.87022 18.4627 0.458164V0L18.3373 0.00432186C18.2684 0.00671268 18.0709 0.0369198 17.8985 0.0714487ZM17.1178 5.77249C16.6262 5.86551 16.1803 5.99387 15.4994 6.23856C15.1859 6.35116 14.6731 6.52661 14.3596 6.62836C13.5826 6.88068 13.5068 6.87236 12.0802 6.37714C10.5517 5.84661 10.2438 5.77456 9.50435 5.77447C7.54232 5.77419 5.67789 6.8468 4.54846 8.62552C4.11212 9.3127 3.72566 10.3412 3.54558 11.2943C3.45513 11.7731 3.44287 11.9812 3.44446 13.0116C3.44592 13.9885 3.46265 14.2849 3.54458 14.7893C3.88504 16.8855 4.70561 19.0285 5.8039 20.6898C6.74646 22.1155 7.70986 23.1759 8.47859 23.6336C8.95336 23.9163 9.26355 24.0001 9.83342 24C10.3964 23.9999 10.8245 23.9021 11.6492 23.5851C12.7463 23.1634 13.263 23.0601 14.1089 23.0933C14.7851 23.1199 15.2811 23.2324 16.0485 23.5332C17.684 24.1743 18.6202 24.1523 19.648 23.4485C20.5793 22.8106 21.9363 21.0417 22.7439 19.4126C23.0117 18.8725 23.4233 17.8697 23.4438 17.7075C23.4521 17.642 23.3672 17.5743 23.0952 17.4291C21.8419 16.7601 20.8525 15.62 20.4523 14.3833C20.1567 13.47 20.1134 12.2047 20.347 11.3009C20.6414 10.1619 21.2733 9.2521 22.3071 8.47849C22.5535 8.29412 22.7786 8.13536 22.8074 8.1257C22.8732 8.10359 22.4758 7.59572 22.1491 7.28423C21.4047 6.57447 20.4339 6.08509 19.2819 5.83875C18.6581 5.70537 17.6377 5.6741 17.1178 5.77249Z" fill="black"/>
</svg>
