<svg width="50" height="50" viewBox="0 0 50 50" fill="none" xmlns="http://www.w3.org/2000/svg">
<path d="M10 25V23.5H8.5V25H10ZM10 36H8.5V37.5H10V36ZM10 26.5H19V23.5H10V26.5ZM20.5 28V33H23.5V28H20.5ZM19 34.5H10V37.5H19V34.5ZM11.5 36V25H8.5V36H11.5ZM20.5 33C20.5 33.8284 19.8284 34.5 19 34.5V37.5C21.4853 37.5 23.5 35.4853 23.5 33H20.5ZM19 26.5C19.8284 26.5 20.5 27.1716 20.5 28H23.5C23.5 25.5147 21.4853 23.5 19 23.5V26.5Z" fill="black"/>
<path d="M22 14H10V27" stroke="black" stroke-width="3"/>
<path d="M27 25H36C37.6569 25 39 26.3431 39 28V33C39 34.6569 37.6569 36 36 36H27V25Z" stroke="black" stroke-width="3"/>
<path d="M39 14H27V27" stroke="black" stroke-width="3"/>
</svg>
